PathFileType	4	(X/Y/Z)	SUBJ59_2_walk_RCNL2025.trc
DataRate	CameraRate	NumFrames	NumMarkers	Units	OrigDataRate	OrigDataStartFrame	OrigNumFrames
100	100	5	25	mm	100	1	327
Frame#	Time	R_Shoulder			L_Shoulder			C7			J_Notch			R_Elbow			L_Elbow			R_Wrist			L_Wrist			R_Asis			L_Asis			Sacral			Thoracic			Sternum			R_Thigh_Lateral			R_Knee_Lateral			R_Shank_Lateral			R_Ankle_Lateral			R_Heel			R_Toe			L_Thigh_Lateral			L_Knee_Lateral			L_Shank_Lateral			L_Ankle_Lateral			L_Heel			L_Toe		
		X1	Y1	Z1	X2	Y2	Z2	X3	Y3	Z3	X4	Y4	Z4	X5	Y5	Z5	X6	Y6	Z6	X7	Y7	Z7	X8	Y8	Z8	X9	Y9	Z9	X10	Y10	Z10	X11	Y11	Z11	X12	Y12	Z12	X13	Y13	Z13	X14	Y14	Z14	X15	Y15	Z15	X16	Y16	Z16	X17	Y17	Z17	X18	Y18	Z18	X19	Y19	Z19	X20	Y20	Z20	X21	Y21	Z21	X22	Y22	Z22	X23	Y23	Z23	X24	Y24	Z24	X25	Y25	Z25
1	0.00000000	-2223.494873	1449.860840	410.711670	-2217.511719	1486.189453	11.422878	-2315.131592	1552.553101	208.770432	-2154.918701	1454.399780	206.967117	-2296.855713	1136.605835	495.584167	-2204.850342	1151.145386	-103.671310	-2261.781860	859.203369	493.251541	-2115.443726	901.502045	-84.094576	-2167.231934	992.727661	316.865387	-2165.408936	989.450928	89.605598	-2386.117920	1019.751648	202.675140	-2383.375000	1337.121460	186.259491	-2102.534424	1258.327393	197.421326	-2140.816650	617.991943	428.534119	-2125.894531	522.405151	377.515961	-2203.863281	345.384369	446.125854	-2309.489258	125.716118	325.642792	-2345.149414	129.110016	275.561188	-2170.215576	52.567837	296.020325	-2265.779541	598.702942	25.389948	-2266.830322	491.520355	86.956291	-2289.325684	292.032440	32.411510	-2327.235840	68.968422	120.397621	-2375.766846	49.484119	171.381805	-2169.951172	31.214262	167.620239
2	0.01000000	-2213.873779	1448.604248	411.191650	-2206.946777	1486.537720	12.037966	-2305.105225	1551.845093	209.172668	-2144.788330	1453.957153	207.334061	-2290.221436	1135.490356	495.065063	-2190.289795	1152.458618	-105.098068	-2257.753906	857.679749	491.854385	-2095.441895	904.982361	-84.266663	-2155.982910	992.315186	316.038177	-2155.011230	988.722839	88.839874	-2375.503662	1019.046387	202.912369	-2373.026855	1336.345093	186.050766	-2091.296143	1258.366333	196.679581	-2125.947998	618.815002	426.790466	-2110.000244	523.074402	375.571259	-2179.403320	341.728973	444.547577	-2273.267822	116.312599	324.565247	-2308.718506	117.579536	274.151001	-2130.011963	50.793259	296.120636	-2261.158936	598.632874	24.998388	-2264.389160	491.456543	86.757301	-2288.427002	292.080078	32.362263	-2327.235352	69.176598	120.588516	-2375.701660	49.877865	171.617813	-2169.791504	31.075094	167.526779
3	0.02000000	-2204.187744	1447.069458	411.711029	-2196.390381	1486.593750	12.680355	-2295.021973	1550.898193	209.635101	-2134.607422	1453.243286	207.751907	-2283.405029	1134.113892	494.609985	-2175.912354	1153.551636	-106.504700	-2253.513550	855.916840	490.524857	-2075.607422	908.418182	-84.348354	-2144.757080	991.559631	315.305145	-2144.641113	987.776428	88.179993	-2364.852295	1018.089294	203.130264	-2362.667236	1335.364746	185.904587	-2080.002686	1258.093506	196.017471	-2111.560059	619.193665	425.041290	-2094.839111	523.204163	373.613159	-2155.192383	337.781769	443.002258	-2236.403320	107.147842	323.574585	-2271.453369	106.306320	272.780914	-2089.469482	49.568336	296.391754	-2256.326172	598.482361	24.565886	-2261.718506	491.386078	86.506363	-2287.347168	292.114563	32.374184	-2327.222412	69.410919	120.782639	-2375.619141	50.294987	171.895432	-2169.660645	30.958052	167.386337
4	0.03000000	-2194.431152	1445.273438	412.270020	-2185.833252	1486.370850	13.346950	-2284.871094	1549.723877	210.159973	-2124.367920	1452.261719	208.225220	-2276.362549	1132.484375	494.187988	-2161.697021	1154.431030	-107.870956	-2249.041748	853.929138	489.278366	-2055.985046	911.783539	-84.328068	-2133.533203	990.483704	314.659332	-2134.291016	986.638977	87.613037	-2354.161377	1016.887024	203.340851	-2352.293945	1334.197388	185.825455	-2068.852539	1257.456543	195.506882	-2097.649414	619.062561	423.291504	-2080.439941	522.769348	371.658173	-2131.404297	333.672791	441.513000	-2199.007568	98.428482	322.702515	-2233.490234	95.506828	271.520966	-2048.747559	49.075146	296.853516	-2251.264160	598.241699	24.103960	-2258.760742	491.294373	86.211472	-2286.063721	292.131836	32.430752	-2327.187012	69.661324	120.979813	-2375.518555	50.735146	172.203064	-2169.564697	30.884474	167.194168
5	0.04000000	-2184.597412	1443.238281	412.868530	-2175.266846	1485.890869	14.035780	-2274.643066	1548.338257	210.749283	-2114.062012	1451.021606	208.754730	-2269.055664	1130.617920	493.773438	-2147.635254	1155.111328	-109.180740	-2244.322388	851.738861	488.129822	-2036.626587	915.052368	-84.194117	-2122.291260	989.118591	314.092346	-2123.952637	985.340820	87.125328	-2343.428223	1015.446655	203.562027	-2341.903564	1332.864136	185.817459	-2058.006104	1256.430542	195.200195	-2084.254150	618.353821	421.550018	-2066.821777	521.765381	369.716156	-2108.218994	329.537933	440.101379	-2161.239502	90.365852	321.987366	-2195.030762	85.392380	270.457825	-2008.056274	49.486126	297.519501	-2245.952881	597.906982	23.623400	-2255.449463	491.158752	85.891708	-2284.545410	292.122101	32.514866	-2327.114258	69.916954	121.178612	-2375.398926	51.201939	172.520966	-2169.493408	30.867189	166.960678
